The true story of one of Europe's most infamous and charismatic criminals comes to a close in this drama based on the life and crimes of Jacques Mesrine. Picking up where L'Instinct de Mort left off, L'Ennemi Public No. 1 begins as Mesrine (Vincent Cassel) returns to France after an exile in Canada. Teaming up with gunman Michel Ardouin (Samuel Le Bihan), Mesrine masterminds a series of armed robberies, and while he's able to stay one step ahead of the law most of the time, eventually he finds himself back in prison, where he makes friends with the clever François (Mathieu Amalric). With François' help, Mesrine breaks out of prison and becomes something of a celebrity, penning an autobiography, hob-nobbing with the wealthy and trying to paint himself as a political radical with the help of leftist spokesman Charlie (Gérard Lanvin). Mesrine also renews his relationship with his girlfriend, Sylvia (Ludivine Sagnier), but he also turns his back on some of his old friends and underestimates the determination of the French police to stop him once and for all. L'Ennemi Public No. 1 (aka Public Enemy No. 1, Part 2) went into release in late 2008, while the wildly successful L'Instinct de Mort was still playing in French theaters.

   General
      Complete name : Mesrine.Part.2.Public.Enemy.No.1.2008.720p.BluRay.DTS.x264-ViGi.mkv
      Format : Matroska
      File size : 5.46 GiB
      Duration : 2h 13mn
      Overall bit rate : 5 870 Kbps
      Encoded date : UTC 2011-11-18 21:41:05
      Writing application : mkvmerge v5.0.1 ('Es ist Sommer') built on Oct  9 2011 11:55:43
      Writing library : libebml v1.2.2 + libmatroska v1.3.0
   Video #1
      ID : 1
      Format : AVC
      Format/Info : Advanced Video Codec
      Format profile : High@L4.1
      Format settings, CABAC : Yes
      Format settings, ReFrames : 9 frames
      Muxing mode : Container profile=Unknown@4.1
      Codec ID : V_MPEG4/ISO/AVC
      Duration : 2h 13mn
      Bit rate : 4 243 Kbps
      Nominal bit rate : 4 365 Kbps
      Width : 1 280 pixels
      Height : 544 pixels
      Display aspect ratio : 2.35:1
      Frame rate : 24.000 fps
      Resolution : 24 bits
      Colorimetry : 4:2:0
      Scan type : Progressive
      Bits/(Pixel*Frame) : 0.254
      Stream size : 3.95 GiB (72%)
      Writing library : x264 core 119 r2106 07efeb4     
   Audio #2
      ID : 2
      Format : DTS
      Format/Info : Digital Theater Systems
      Codec ID : A_DTS
      Duration : 2h 13mn
      Bit rate mode : Constant
      Bit rate : 1 510 Kbps
      Channel(s) : 6 channels
      Channel positions : Front: L C R, Surround: L R, LFE
      Sampling rate : 48.0 KHz
      Resolution : 24 bits
      Stream size : 1.40 GiB (26%)
      Language : French
   Text #3
      ID : 3
      Format : UTF-8
      Codec ID : S_TEXT/UTF8
      Codec ID/Info : UTF-8 Plain Text
   Text #4
      ID : 4
      Format : UTF-8
      Codec ID : S_TEXT/UTF8
      Codec ID/Info : UTF-8 Plain Text
      Language : Dutch
 
http://www.imdb.com/title/tt0411272/

Language: French
Subtitles: English, Dutch (in mkv), Portuguese (srt)